<?xml version="1.0" encoding="UTF-8" standalone="no"?>
<!-- Created with Inkscape (http://www.inkscape.org/) -->

<svg
   xmlns:dc="http://purl.org/dc/elements/1.1/"
   xmlns:cc="http://creativecommons.org/ns#"
   xmlns:rdf="http://www.w3.org/1999/02/22-rdf-syntax-ns#"
   xmlns:svg="http://www.w3.org/2000/svg"
   xmlns="http://www.w3.org/2000/svg"
   xmlns:sodipodi="http://sodipodi.sourceforge.net/DTD/sodipodi-0.dtd"
   xmlns:inkscape="http://www.inkscape.org/namespaces/inkscape"
   width="120mm"
   height="120mm"
   viewBox="0 0 425.19686 425.19685"
   id="svg4195"
   version="1.1"
   inkscape:version="0.91 r13725"
   sodipodi:docname="Fond de récit.svg"
   inkscape:export-filename=".\Fond de récit.png"
   inkscape:export-xdpi="599.88171"
   inkscape:export-ydpi="599.88171">
  <defs
     id="defs4197" />
  <sodipodi:namedview
     id="base"
     pagecolor="#ffffff"
     bordercolor="#666666"
     borderopacity="1.0"
     inkscape:pageopacity="0.0"
     inkscape:pageshadow="2"
     inkscape:zoom="1.4675556"
     inkscape:cx="144.39869"
     inkscape:cy="201.01053"
     inkscape:document-units="mm"
     inkscape:current-layer="layer1"
     showgrid="true"
     showguides="true"
     inkscape:guide-bbox="true"
     inkscape:snap-center="false"
     inkscape:object-paths="false"
     inkscape:snap-bbox="true"
     inkscape:snap-text-baseline="false"
     inkscape:snap-others="true"
     inkscape:object-nodes="true"
     inkscape:window-width="1920"
     inkscape:window-height="1017"
     inkscape:window-x="1912"
     inkscape:window-y="-8"
     inkscape:window-maximized="1"
     inkscape:snap-grids="true"
     inkscape:snap-object-midpoints="true">
    <inkscape:grid
       type="axonomgrid"
       id="grid4163"
       units="mm"
       empspacing="5"
       spacingy="17.716536" />
  </sodipodi:namedview>
  <metadata
     id="metadata4200">
    <rdf:RDF>
      <cc:Work
         rdf:about="">
        <dc:format>image/svg+xml</dc:format>
        <dc:type
           rdf:resource="http://purl.org/dc/dcmitype/StillImage" />
        <dc:title></dc:title>
      </cc:Work>
    </rdf:RDF>
  </metadata>
  <g
     inkscape:label="Applats"
     inkscape:groupmode="layer"
     id="layer1"
     transform="translate(0,-627.16534)">
    <path
       style="opacity:1;fill:#000000;fill-opacity:0.03694581;stroke:none;stroke-width:3.54330707;stroke-linecap:square;stroke-linejoin:miter;stroke-miterlimit:4;stroke-dasharray:none;stroke-dashoffset:0;stroke-opacity:0.2142857"
       d="m 368.23128,627.16531 -15.34297,8.85826 0,17.71654 15.34297,8.85827 0,17.71653 -15.34297,8.85827 -15.34297,-8.85827 -15.34297,8.85827 0,17.71654 -15.34297,8.85826 0,17.71654 -15.34297,8.85827 0,17.71653 15.34297,8.85827 0,17.71654 -15.34297,8.85826 0,17.71654 15.34297,8.85827 0,17.71653 15.34297,8.85827 0,17.71654 15.34297,8.85826 15.34297,-8.85826 15.34297,8.85826 0,17.71654 -15.34297,8.85827 0,17.71653 -15.34297,8.85827 0,17.71654 -15.34297,8.85826 0,17.71654 15.34297,8.85827 0,17.71653 15.34297,8.85825 0,17.7166 15.34297,8.8582 0,17.7166 61.37188,0 0,-425.19689 z"
       id="path4171"
       inkscape:connector-curvature="0" />
    <path
       style="opacity:1;fill:#000000;fill-opacity:0.03694581;stroke:none;stroke-width:3.54330707;stroke-linecap:square;stroke-linejoin:miter;stroke-miterlimit:4;stroke-dasharray:none;stroke-dashoffset:0;stroke-opacity:0.2142857"
       d="m 61.371879,627.16531 -15.34297,8.85826 0,17.71654 15.34297,8.85827 15.34297,-8.85827 15.34297,8.85827 0,17.71653 15.342971,8.85827 0,17.71654 15.34297,8.85826 0,17.71654 -15.34297,8.85827 0,17.71653 -15.342971,8.85827 0,17.71654 -15.34297,8.85826 -15.34297,-8.85826 -15.34297,8.85826 0,17.71654 15.342974,8.85828 -4e-6,17.71652 15.34297,8.85827 0,17.71654 -15.34297,8.85826 0,17.71654 15.34297,8.85827 0,17.71653 15.34297,8.85827 0,17.71654 15.342981,8.85829 -1e-5,17.71651 15.34297,8.85827 0,17.71653 -15.34297,8.85825 0,17.7166 -15.342971,8.8582 0,17.7166 -92.057819,0 0,-425.19689 92.057819,0 -15.34297,8.85826 z"
       id="path4169"
       inkscape:connector-curvature="0"
       sodipodi:nodetypes="cccccccccccccccccccccccccccccccccccccccccc" />
    <path
       style="opacity:1;fill:#000000;fill-opacity:0.03694581;stroke:none;stroke-width:3.54330707;stroke-linecap:square;stroke-linejoin:miter;stroke-miterlimit:4;stroke-dasharray:none;stroke-dashoffset:0;stroke-opacity:0.2142857"
       d="m 0,627.16531 30.685941,0 -15.342971,8.85826 0,17.71654 15.34297,8.85827 0,17.71653 -15.34297,8.85827 0,17.71654 15.34297,8.85826 15.342969,-8.85826 0,-17.71654 15.34297,-8.85827 15.34297,8.85827 0,17.71654 15.34297,8.85826 0,17.71654 -15.34297,8.85827 0,17.71653 -15.34297,8.85827 -15.34297,-8.85827 -15.342969,8.85827 0,17.71654 -15.342969,8.85828 0,17.71654 15.342969,8.85825 0,17.71653 15.342972,8.85828 0,17.71654 -15.342972,8.85825 0,17.71654 15.342969,8.85827 0,17.71653 15.34297,8.85827 0,17.71654 -15.34297,8.85826 0,17.71654 15.34297,8.85827 15.34297,-8.85827 15.34297,8.85827 0,17.71653 -15.34297,8.85825 0,17.7166 -15.34297,8.8582 -15.34297,-8.8582 0,-17.7166 -15.342969,-8.85825 -15.34297,8.85825 0,17.7166 15.34297,8.8582 0,17.7166 -30.68594,0 z"
       id="path4165"
       inkscape:connector-curvature="0"
       sodipodi:nodetypes="cccccccccccccccccccccccccccccccccccccccccccccccccccc" />
    <path
       style="opacity:1;fill:#000000;fill-opacity:0.03694581;stroke:none;stroke-width:3.54330707;stroke-linecap:square;stroke-linejoin:miter;stroke-miterlimit:4;stroke-dasharray:none;stroke-dashoffset:0;stroke-opacity:0.2142857"
       d="m 398.91722,627.16531 -15.34297,8.85826 0,17.71654 15.34297,8.85827 0,17.71653 -15.34297,8.85827 0,17.71654 -15.34297,8.85826 -15.34297,-8.85826 -15.34297,8.85826 0,17.71654 -15.34297,8.85827 0,17.71653 15.34297,8.85827 15.34297,-8.85827 0,-17.71653 15.34297,-8.85827 15.34297,8.85827 0,17.71653 -15.34297,8.85827 0,17.71654 -15.34297,8.85826 -15.34297,-8.85826 -15.34297,8.85826 0,17.71654 15.34297,8.85827 0,17.71653 15.34297,8.85827 15.34297,-8.85827 0,-17.71653 15.34297,-8.85827 15.34297,8.85827 0,17.71653 15.34297,8.85827 0,17.71654 -15.34297,8.85826 0,17.71654 -15.34297,8.85827 0,17.71653 15.34297,8.85827 0,17.71654 -15.34297,8.85826 -15.34297,-8.85826 -15.34297,8.85826 0,17.71654 15.34297,8.85827 0,17.71653 15.34297,8.85825 0,17.7166 15.34297,8.8582 0,17.7166 30.68594,0 0,-425.19689 z"
       id="path4167"
       inkscape:connector-curvature="0" />
    <path
       style="opacity:1;fill:#000000;fill-opacity:0.03694581;stroke:none;stroke-width:3.54330707;stroke-linecap:square;stroke-linejoin:miter;stroke-miterlimit:4;stroke-dasharray:none;stroke-dashoffset:0;stroke-opacity:0.2142857"
       d="m 122.74376,627.16531 -15.34297,8.85826 0,17.71654 15.34297,8.85827 0,17.71653 15.34297,8.85827 0,17.71654 15.34297,8.85826 0,17.71654 -15.34297,8.85827 0,17.71653 -15.34297,8.85827 0,17.71654 -15.34297,8.85826 0,17.71654 -15.342971,8.85827 0,17.71653 15.342971,8.85827 0,17.71654 -15.342971,8.85826 0,17.71654 15.342971,8.85827 0,17.71653 15.34297,8.85827 0,17.71654 15.34297,8.85826 0,17.71654 15.34297,8.85827 0,17.71653 -15.34297,8.85825 0,17.7166 -15.34297,8.8582 0,17.7166 -122.74376,0 0,-425.19689 z"
       id="path4173"
       inkscape:connector-curvature="0" />
    <path
       style="opacity:1;fill:#000000;fill-opacity:0.03694581;stroke:none;stroke-width:3.54330707;stroke-linecap:square;stroke-linejoin:miter;stroke-miterlimit:4;stroke-dasharray:none;stroke-dashoffset:0;stroke-opacity:0.2142857"
       d="m 337.54534,627.16531 -15.34297,8.85826 0,17.71654 -15.34297,8.85827 0,17.71653 -15.34297,8.85827 0,17.71654 -15.34297,8.85826 0,17.71654 -15.34297,8.85827 0,17.71653 15.34297,8.85827 0,17.71654 -15.34297,8.85826 0,17.71654 15.34297,8.85827 0,17.71653 15.34297,8.85827 0,17.71654 15.34297,8.85826 0,17.71654 15.34297,8.85827 0,17.71653 -15.34297,8.85827 0,17.71654 -15.34297,8.85826 0,17.71654 15.34297,8.85827 0,17.71653 15.34297,8.85825 0,17.7166 15.34297,8.8582 0,17.7166 92.05782,0 0,-425.19689 z"
       id="path4175"
       inkscape:connector-curvature="0" />
    <path
       style="opacity:1;fill:#000000;fill-opacity:0.03694581;stroke:none;stroke-width:3.54330707;stroke-linecap:square;stroke-linejoin:miter;stroke-miterlimit:4;stroke-dasharray:none;stroke-dashoffset:0;stroke-opacity:0.2142857"
       d="m 153.4297,627.16531 -15.34297,8.85826 0,17.71654 15.34297,8.85827 0,17.71653 15.34297,8.85827 0,17.71654 15.34297,8.85826 0,17.71654 -15.34297,8.85827 0,17.71653 -15.34297,8.85827 0,17.71654 -15.34297,8.85826 0,17.71654 -15.34297,8.85827 0,17.71653 15.34297,8.85827 0,17.71654 -15.34297,8.85826 0,17.71654 15.34297,8.85827 0,17.71653 15.34297,8.85827 0,17.71654 15.34297,8.85826 0,17.71654 15.34297,8.85827 0,17.71653 -15.34297,8.85825 0,17.7166 -15.34297,8.8582 0,17.7166 -153.4297,0 0,-425.19689 z"
       id="path4177"
       inkscape:connector-curvature="0" />
    <path
       style="opacity:1;fill:#000000;fill-opacity:0.03694581;stroke:none;stroke-width:3.54330707;stroke-linecap:square;stroke-linejoin:miter;stroke-miterlimit:4;stroke-dasharray:none;stroke-dashoffset:0;stroke-opacity:0.2142857"
       d="m 306.8594,627.16531 -15.34297,8.85826 0,17.71654 -15.34297,8.85827 0,17.71653 -15.34297,8.85827 0,17.71654 -15.34297,8.85826 0,17.71654 -15.34297,8.85827 0,17.71653 15.34297,8.85827 0,17.71654 -15.34297,8.85826 0,17.71654 15.34297,8.85827 0,17.71653 15.34297,8.85827 0,17.71654 15.34297,8.85826 0,17.71654 15.34297,8.85827 0,17.71653 -15.34297,8.85827 0,17.71654 -15.34297,8.85826 0,17.71654 15.34297,8.85827 0,17.71653 15.34297,8.85825 0,17.7166 15.34297,8.8582 0,17.7166 122.74376,0 0,-425.19689 z"
       id="path4179"
       inkscape:connector-curvature="0" />
  </g>
  <g
     inkscape:groupmode="layer"
     id="layer3"
     inkscape:label="Traits"
     sodipodi:insensitive="true"
     transform="translate(0,70.866146)" />
  <g
     inkscape:groupmode="layer"
     id="layer2"
     inkscape:label="Opacite"
     style="display:inline"
     sodipodi:insensitive="true"
     transform="translate(0,70.866146)" />
</svg>
