<?xml version="1.0" encoding="UTF-8" standalone="no"?>
<!-- Created with Inkscape (http://www.inkscape.org/) -->

<svg
   xmlns:dc="http://purl.org/dc/elements/1.1/"
   xmlns:cc="http://creativecommons.org/ns#"
   xmlns:rdf="http://www.w3.org/1999/02/22-rdf-syntax-ns#"
   xmlns:svg="http://www.w3.org/2000/svg"
   xmlns="http://www.w3.org/2000/svg"
   xmlns:sodipodi="http://sodipodi.sourceforge.net/DTD/sodipodi-0.dtd"
   xmlns:inkscape="http://www.inkscape.org/namespaces/inkscape"
   width="57.5mm"
   height="100mm"
   viewBox="0 0 203.74016 354.33071"
   id="svg4195"
   version="1.1"
   inkscape:version="0.91 r13725"
   sodipodi:docname="Fond de cadre.svg"
   inkscape:export-filename=".\Fond de cadre.png"
   inkscape:export-xdpi="599.88171"
   inkscape:export-ydpi="599.88171">
  <defs
     id="defs4197" />
  <sodipodi:namedview
     id="base"
     pagecolor="#ffffff"
     bordercolor="#666666"
     borderopacity="1.0"
     inkscape:pageopacity="0.0"
     inkscape:pageshadow="2"
     inkscape:zoom="1.4675556"
     inkscape:cx="95.455345"
     inkscape:cy="123.97537"
     inkscape:document-units="mm"
     inkscape:current-layer="layer3"
     showgrid="true"
     showguides="true"
     inkscape:guide-bbox="true"
     inkscape:snap-center="false"
     inkscape:object-paths="false"
     inkscape:snap-bbox="true"
     inkscape:snap-text-baseline="false"
     inkscape:snap-others="false"
     inkscape:object-nodes="true"
     inkscape:window-width="1920"
     inkscape:window-height="1017"
     inkscape:window-x="1912"
     inkscape:window-y="-8"
     inkscape:window-maximized="1"
     inkscape:snap-grids="true">
    <inkscape:grid
       type="axonomgrid"
       id="grid4801"
       units="mm"
       empspacing="5"
       spacingy="17.716535"
       originx="194.88188"
       gridanglex="30"
       originy="0" />
  </sodipodi:namedview>
  <metadata
     id="metadata4200">
    <rdf:RDF>
      <cc:Work
         rdf:about="">
        <dc:format>image/svg+xml</dc:format>
        <dc:type
           rdf:resource="http://purl.org/dc/dcmitype/StillImage" />
        <dc:title />
      </cc:Work>
    </rdf:RDF>
  </metadata>
  <g
     inkscape:label="Applats"
     inkscape:groupmode="layer"
     id="layer1"
     transform="translate(0,-698.03149)"
     sodipodi:insensitive="true">
    <path
       style="fill:#aeaeae;fill-opacity:1;fill-rule:evenodd;stroke:none;stroke-width:1px;stroke-linecap:butt;stroke-linejoin:miter;stroke-opacity:1"
       d="m 41.452188,1052.3622 15.34297,-8.8583 0,-17.7165 -15.34297,-8.8583 30.68594,-17.7165 15.342969,8.8583 15.342973,-8.8583 0,17.7165 -15.342973,8.8583 15.342973,8.8583 30.68594,-17.7166 -15.34297,-8.8582 0,-17.71657 30.68594,17.71657 0,17.7165 15.34297,-8.8583 0,-17.7165 -15.34297,-8.85827 0,-17.71653 15.34297,-8.85827 0,-17.71653 -15.34297,-8.85827 -30.68594,17.71653 15.34297,8.85827 -15.34297,8.85827 -15.34297,-8.85827 -15.342973,-8.85827 0,-53.1496 30.685943,17.71653 -15.34297,8.85827 0,17.71654 30.68594,-17.71654 0,-17.71654 15.34297,-8.85826 15.34297,8.85826 15.34297,-8.85826 0,-17.71654 15.34297,8.85827 15.34297,-8.85827 0,177.16538 -184.115642,0 z"
       id="path5206"
       inkscape:connector-curvature="0" />
    <path
       style="fill:#c4c4c4;fill-opacity:1;fill-rule:evenodd;stroke:none;stroke-width:1px;stroke-linecap:butt;stroke-linejoin:miter;stroke-opacity:1"
       d="m 87.481097,972.6378 15.342973,8.85827 -15.342973,8.85826 -30.685939,-17.71653 0,17.71653 -15.34297,8.85827 -15.34297,-8.85827 0,-17.71653 15.34297,8.85827 0,-35.43307 15.34297,8.85826 15.34297,-8.85826 0,17.71653 z"
       id="path5208"
       inkscape:connector-curvature="0" />
    <path
       style="fill:#c2c2c2;fill-opacity:1;fill-rule:evenodd;stroke:none;stroke-width:1px;stroke-linecap:butt;stroke-linejoin:miter;stroke-opacity:1"
       d="m 118.16704,901.77166 30.68594,-17.71654 15.34297,8.85827 0,-17.71654 15.34297,-8.85827 -30.68594,-17.71653 61.37188,-35.43307 0,-53.14961 -15.34297,-8.85827 -15.34297,8.85827 0,-17.71654 -30.68594,17.71654 15.34297,8.85827 0,17.71653 -15.34297,-8.85826 -15.34297,8.85826 0,17.71654 -15.34297,-8.85827 0,17.71654 15.34297,8.85827 15.34297,-8.85827 0,17.71653 -30.68594,17.71654 15.34297,8.85827 -15.34297,8.85826 -15.34297,-8.85826 0,-17.71654 -15.342973,8.85827 0,17.71653 15.342973,8.85827 -15.342973,8.85827 z"
       id="path5210"
       inkscape:connector-curvature="0" />
    <path
       style="fill:#ababab;fill-opacity:1;fill-rule:evenodd;stroke:none;stroke-width:1px;stroke-linecap:butt;stroke-linejoin:miter;stroke-opacity:1"
       d="m 179.53892,848.62205 30.68594,-17.71654 0,17.71654 -15.34297,8.85827 z"
       id="path5212"
       inkscape:connector-curvature="0" />
    <path
       style="fill:#d4d4d4;fill-opacity:1;fill-rule:evenodd;stroke:none;stroke-width:1px;stroke-linecap:butt;stroke-linejoin:miter;stroke-opacity:1"
       d="m 72.138128,928.34646 -15.34297,8.85827 -30.68594,-17.71654 15.34297,-8.85827 0,-17.71653 30.68594,17.71653 -15.34297,8.85827 z"
       id="path5214"
       inkscape:connector-curvature="0" />
    <path
       style="fill:#d3d3d3;fill-opacity:1;fill-rule:evenodd;stroke:none;stroke-width:1px;stroke-linecap:butt;stroke-linejoin:miter;stroke-opacity:1"
       d="m 10.766248,875.19685 0,17.71654 15.34297,-8.85827 -15.34297,-8.85827 z"
       id="path5216"
       inkscape:connector-curvature="0" />
    <path
       style="fill:#d7d7d7;fill-opacity:1;fill-rule:evenodd;stroke:none;stroke-width:1px;stroke-linecap:butt;stroke-linejoin:miter;stroke-opacity:1"
       d="m 10.766248,928.34646 0,17.71654 15.34297,-8.85827 z"
       id="path5218"
       inkscape:connector-curvature="0" />
    <path
       style="fill:#d7d7d7;fill-opacity:1;fill-rule:evenodd;stroke:none;stroke-width:1px;stroke-linecap:butt;stroke-linejoin:miter;stroke-opacity:1"
       d="m 10.766248,963.77953 15.34297,-8.85827 0,17.71654 z"
       id="path5220"
       inkscape:connector-curvature="0" />
    <path
       style="fill:#d1d1d1;fill-opacity:1;fill-rule:evenodd;stroke:none;stroke-width:1px;stroke-linecap:butt;stroke-linejoin:miter;stroke-opacity:1"
       d="m 10.766248,999.2126 30.68594,17.7165 0,17.7166 -15.34297,8.8582 -15.34297,-8.8582 15.34297,-8.8583 -30.6859401,-17.7165 z"
       id="path5222"
       inkscape:connector-curvature="0" />
    <path
       style="fill:#dadada;fill-opacity:1;fill-rule:evenodd;stroke:none;stroke-width:1px;stroke-linecap:butt;stroke-linejoin:miter;stroke-opacity:1"
       d="m 41.452188,857.48032 0,17.71653 15.34297,8.85827 0,-17.71654 15.34297,-8.85826 -15.34297,-8.85827 z"
       id="path5224"
       inkscape:connector-curvature="0" />
    <path
       style="fill:#e6e6e6;fill-opacity:1;fill-rule:evenodd;stroke:none;stroke-width:1px;stroke-linecap:butt;stroke-linejoin:miter;stroke-opacity:1"
       d="m 26.109218,742.32283 0,35.43308 30.68594,17.71653 0,-17.71653 -15.34297,-8.85827 30.68594,-17.71654 -15.34297,-8.85827 15.34297,-8.85826 15.342969,8.85826 0,-17.71653 -15.342969,-8.85827 -30.68594,17.71654 -30.68594,-17.71654 0,17.71654 z"
       id="path5226"
       inkscape:connector-curvature="0" />
    <path
       style="fill:#d7d7d7;fill-opacity:1;fill-rule:evenodd;stroke:none;stroke-width:1px;stroke-linecap:butt;stroke-linejoin:miter;stroke-opacity:1"
       d="m 102.82407,751.1811 30.68594,17.71654 -30.68594,17.71653 z"
       id="path5228"
       inkscape:connector-curvature="0" />
    <path
       style="fill:#d7d7d7;fill-opacity:1;fill-rule:evenodd;stroke:none;stroke-width:1px;stroke-linecap:butt;stroke-linejoin:miter;stroke-opacity:1"
       d="m 72.138128,768.89764 0,17.71653 15.342968,8.85827 -15.342968,8.85827 15.342968,8.85827 0,-17.71654 15.342974,-8.85827 -15.342974,-8.85826 0,-17.71654 z"
       id="path5230"
       inkscape:connector-curvature="0" />
    <path
       style="fill:#e3e3e3;fill-opacity:1;fill-rule:evenodd;stroke:none;stroke-width:1px;stroke-linecap:butt;stroke-linejoin:miter;stroke-opacity:1"
       d="m 26.109218,795.47244 30.68594,17.71654 15.34297,-8.85827 0,17.71654 15.342969,8.85826 15.342973,-8.85826 0,17.71653 -15.342973,-8.85827 -15.342969,8.85827 -15.34297,8.85827 0,-17.71654 -15.34297,-8.85826 0,17.71653 -15.34297,8.85827 15.34297,8.85827 -15.34297,8.85826 0,-17.71653 -15.34297,-8.85827 15.34297,-8.85827 0,-17.71653 -30.6859401,-17.71654 15.3429701,-8.85827 15.34297,-8.85826 z"
       id="path5232"
       inkscape:connector-curvature="0" />
    <path
       style="fill:#e4e4e4;fill-opacity:1;fill-rule:evenodd;stroke:none;stroke-width:1px;stroke-linecap:butt;stroke-linejoin:miter;stroke-opacity:1"
       d="m 87.481097,742.32283 0,17.71654 15.342973,-8.85827 0,-17.71653 15.34297,-8.85827 -15.34297,-8.85827 0,17.71654 z"
       id="path5234"
       inkscape:connector-curvature="0" />
  </g>
  <g
     inkscape:groupmode="layer"
     id="layer3"
     inkscape:label="Traits">
    <path
       id="path5234-5"
       style="fill:none;fill-opacity:1;fill-rule:evenodd;stroke:#ffffff;stroke-width:1.77165354;stroke-linecap:butt;stroke-linejoin:miter;stroke-opacity:0.66972476;stroke-miterlimit:4;stroke-dasharray:none"
       d="m 87.481079,44.291368 0,17.71654 15.342981,-8.85827 0,-17.71653 15.34297,-8.858274 -15.34297,-8.85827 0,17.716544 z m -61.37187,53.14961 30.68594,17.716542 15.34297,-8.85827 0,17.71654 15.34296,8.85826 15.342981,-8.85826 0,17.71653 -15.342981,-8.85827 -15.34296,8.85827 -15.34297,8.85827 0,-17.71654 -15.34297,-8.85826 0,17.71653 -15.34297,8.85827 15.34297,8.85827 -15.34297,8.85826 0,-17.71653 -15.34297,-8.85827 15.34297,-8.85827 0,-17.71653 -30.6859404,-17.716542 15.3429704,-8.85827 15.34297,-8.85826 z m 46.02891,-26.5748 0,17.71653 15.34296,8.85827 -15.34296,8.858272 15.34296,8.85827 0,-17.716542 15.342981,-8.85827 -15.342981,-8.85826 0,-17.71654 z m 30.685941,-17.71654 30.68594,17.71654 -30.68594,17.71653 z m -76.714851,-8.85827 0,35.43308 30.68594,17.71653 0,-17.71653 -15.34297,-8.85827 30.68594,-17.71654 -15.34297,-8.85827 15.34297,-8.85826 15.34296,8.85826 0,-17.716534 -15.34296,-8.85827 -30.68594,17.716544 -30.68594,-17.716544 0,17.716544 z m 15.34297,115.157492 0,17.71653 15.34297,8.85827 0,-17.71654 15.34297,-8.85826 -15.34297,-8.85827 z m -30.68594,141.73228 30.68594,17.7165 0,17.7166 -15.34297,8.8582 -15.34297,-8.8582 15.34297,-8.8583 -30.6859404,-17.7165 z m 0,-35.43307 15.34297,-8.85827 0,17.71654 z m 0,-35.43307 0,17.71654 15.34297,-8.85827 z m 0,-53.14961 0,17.71654 15.34297,-8.85827 -15.34297,-8.85827 z m 61.37188,53.14961 -15.34297,8.85827 -30.68594,-17.71654 15.34297,-8.85827 0,-17.71653 30.68594,17.71653 -15.34297,8.85827 z m 107.400791,-79.72441 30.68594,-17.71654 0,17.71654 -15.34297,8.85827 z m -61.37188,53.14961 30.68594,-17.71654 15.34297,8.85827 0,-17.71654 15.34297,-8.85827 -30.68594,-17.71653 61.37188,-35.43307 0,-53.149612 -15.34297,-8.85827 -15.34297,8.85827 0,-17.71654 -30.68594,17.71654 15.34297,8.85827 0,17.71653 -15.34297,-8.85826 -15.34297,8.85826 0,17.716542 -15.34297,-8.858272 0,17.716542 15.34297,8.85827 15.34297,-8.85827 0,17.71653 -30.68594,17.71654 15.34297,8.85827 -15.34297,8.85826 -15.34297,-8.85826 0,-17.71654 -15.342981,8.85827 0,17.71653 15.342981,8.85827 -15.342981,8.85827 z m -30.685951,70.86614 15.342981,8.85827 -15.342981,8.85826 -30.68593,-17.71653 0,17.71653 -15.34297,8.85827 -15.34297,-8.85827 0,-17.71653 15.34297,8.85827 0,-35.43307 15.34297,8.85826 15.34297,-8.85826 0,17.71653 z m -46.0289,79.7244 15.34297,-8.8583 0,-17.7165 -15.34297,-8.8583 30.68594,-17.7165 15.34296,8.8583 15.342981,-8.8583 0,17.7165 -15.342981,8.8583 15.342981,8.8583 30.68594,-17.7166 -15.34297,-8.8582 0,-17.71657 30.68594,17.71657 0,17.7165 15.34297,-8.8583 0,-17.7165 -15.34297,-8.85827 0,-17.71653 15.34297,-8.85827 0,-17.71653 -15.34297,-8.85827 -30.68594,17.71653 15.34297,8.85827 -15.34297,8.85827 -15.34297,-8.85827 -15.342981,-8.85827 0,-53.1496 30.685951,17.71653 -15.34297,8.85827 0,17.71654 30.68594,-17.71654 0,-17.71654 15.34297,-8.85826 15.34297,8.85826 15.34297,-8.85826 0,-17.71654 15.34297,8.85827 15.34297,-8.85827 0,177.16538 -184.115641,0 z M 87.48109,44.291338 102.82406,53.149606 M 56.79515,26.574803 72.13812,35.433071 m 92.05782,17.716535 46.02891,26.574803 m -46.02891,-8.858268 46.02891,26.574804 m -46.02891,-8.858268 46.02891,26.574803 M 133.51,88.582677 194.88188,124.01575 m -92.05782,-53.149609 15.34297,8.858268 M 41.45218,35.433071 56.79515,44.291338 m 138.08673,97.440942 15.34297,8.85827 m -61.37188,-35.43307 30.68594,17.71654 M 133.51,106.29921 l 15.34297,8.85827 M 26.109211,44.291338 56.79515,62.007874 m 15.34297,8.858267 15.34297,8.858268 m 46.02891,62.007871 15.34297,8.85827 m 0,-17.71653 15.34297,8.85826 M 26.109211,62.007874 56.79515,79.724409 m 122.74376,106.299211 30.68594,17.71654 m -92.05782,-53.14961 46.02891,26.5748 m -107.40079,-62.00787 15.34297,8.85827 m -61.371879,-35.433073 15.34297,8.858268 m 153.429699,106.299215 30.68594,17.71653 m -122.74376,-70.86614 61.37188,35.43307 m -92.05782,-53.1496 15.34297,8.85826 m -46.028909,-26.5748 15.342969,8.85827 m 122.74376,88.58268 46.02891,26.5748 M 102.82406,177.16535 133.51,194.88189 M 26.109211,132.87402 41.45218,141.73228 m 92.05782,70.86615 76.71485,44.29133 m -168.77267,-97.44094 15.34297,8.85827 m 107.40079,79.72441 46.02891,26.5748 M 133.51,230.31496 l 15.34297,8.85827 m 15.34297,26.5748 46.02891,26.5748 m -92.05782,-53.1496 15.34297,8.85827 m -46.02891,-26.57481 15.34297,8.85827 m 107.40079,79.72441 -61.37188,-35.43307 m 0,0 c 4.58812,1.81708 4.58812,1.81708 0,0 m -61.37188,-35.43307 30.68594,17.71653 m -76.71485,-44.29133 15.34297,8.85826 m 107.40079,79.72441 46.02891,26.57481 m -46.02891,-8.85827 46.02891,26.5748 m -153.4297,-88.58268 15.34297,8.85827 m 61.37188,53.14961 15.34297,8.85827 61.37188,35.43307 M 41.45218,265.74803 56.79515,274.6063 m 61.37188,53.14961 61.37188,35.43307 m -92.05782,-53.14961 15.34297,8.85827 m -61.37188,-35.43307 15.34297,8.85826 m 46.02891,44.29134 46.02891,26.57481 m -92.05782,-53.14961 30.68594,17.71654 m -30.68594,0 61.37188,35.43307 m -61.37188,-17.71654 30.68594,17.71654 m -46.02891,-8.85827 15.34297,8.85827 m -30.685939,-35.43307 15.342969,8.85826 m -30.685939,-35.43307 0,17.71654 m 46.028909,-168.30709 0,17.71654 m 15.34297,-44.29134 0,17.71653 m -15.34297,-26.5748 0,17.71654 m -30.685939,0 0,17.71653 m 15.342969,-44.29134 0,17.71654 m -15.342969,-26.574805 0,17.716535 m -15.34297,-26.574803 0,17.716533 m 15.34297,-79.724407 0,17.716535 m 15.342969,-8.858267 0,53.149606 m 15.34297,-62.007874 0,35.433071 m 15.34297,-44.291339 0,17.716536 m 46.02891,26.574803 0,17.716535 m 15.34297,26.574801 0,17.71654 m 15.34297,-44.291341 0,70.866141 m 15.34297,-62.007873 0,53.149603 m 0,-88.582674 0,17.716535 m 15.34297,-8.858267 0,70.866146 m 15.34297,-79.724414 0,70.866144 m 0,17.71653 0,17.71654 m -46.02891,26.5748 15.34297,-8.85827 m 0,-17.71653 0,17.71653 m -15.34297,-26.5748 0,35.43307 M 133.51,141.73228 l 0,53.14961 m -15.34297,-26.5748 0,35.43307 m -15.34297,-44.29134 0,35.43307 m -61.37188,35.43307 0,-17.71653 15.34297,-8.85827 0,35.43307 m -15.34297,44.29134 0,17.71653 m 15.34297,-44.29134 0,17.71654 m 15.34297,-8.85827 0,17.71654 m 15.34297,-8.85827 0,17.71653 m 15.34297,-79.7244 0,17.71653 m 0,17.71654 0,17.71653 m 15.34297,-26.5748 0,35.43307 m 15.34297,-44.29134 0,17.71654 m -107.400789,62.00787 0,35.43307 m 15.342969,8.85827 0,17.71653 m 15.34297,-26.5748 0,17.71654 m 0,-53.14961 0,17.71654 m 15.34297,-26.57481 0,70.86614 m 15.34297,-62.00787 0,53.14961 m 15.34297,-26.57481 0,35.43307 m 15.34297,-44.29133 0,35.43307 M 133.51,301.1811 l 0,70.86614 m 15.34297,-44.29133 0,35.43307 m 0,-159.44882 0,35.43307 m 15.34297,79.72441 0,53.1496 m 0,-106.29921 0,35.43307 m 0,-88.58267 0,35.43307 m 15.34297,-44.29134 0,159.44882 m 15.34297,8.85826 0,-177.16535 M 102.82406,70.866141 118.16703,62.007874 M 72.13812,88.582677 87.48109,79.724409 m -46.02891,8.858268 15.34297,-8.858268 m -30.685939,0 15.342969,-8.858268 M 72.13812,35.433071 87.48109,26.574803 M 26.109211,62.007874 56.79515,44.291338 m -46.028909,-8.858267 15.34297,-8.858268 m 0,17.716535 15.342969,-8.858267 m -30.685939,70.866139 15.34297,-8.858265 m 0,17.716535 15.342969,-8.85827 m 15.34297,26.57481 15.34297,-8.85827 m -46.028909,8.85827 30.685939,-17.71654 m -15.34297,62.00787 15.34297,-8.85826 m 61.37189,-53.1496 92.05782,-53.14961 m -61.37188,53.14961 61.37188,-35.773775 M 148.85298,132.87402 210.22484,97.781655 M 87.481097,168.30709 102.82407,159.44883 m 30.68594,0 15.34297,-8.85827 m -46.02891,26.5748 15.34297,-8.85827 m -15.34298,26.5748 61.37188,-35.43307 m -122.74376,70.86614 15.34297,-8.85827 m 46.02891,-8.85826 -15.34297,8.85826 m 0,17.71654 15.34297,-8.85827 m -61.37188,35.43307 15.34297,-8.85827 m -30.685939,35.43307 15.342969,-8.85826 m 30.68594,-17.71654 -30.68594,17.71654 m 0,35.43307 -15.342969,8.85827 m 0,-17.71654 -15.34297,8.85827 M 87.48109,274.6063 72.13812,283.46457 m 46.02891,-26.57481 -15.34297,8.85827 m 0,-17.71653 -15.34297,8.85826 M 164.19594,212.59843 133.51,230.31496 m 61.37188,-35.43307 -15.34297,8.85827 m 30.68594,0 -61.37188,35.43307 m 61.37188,-17.71654 -46.02891,26.57481 m -76.71485,62.00787 -30.68594,17.71654 m 153.4297,-88.58268 -46.02891,26.5748 M 87.48109,327.75591 56.79515,345.47244 M 133.51,301.1811 l -15.34297,8.85827 m 92.05782,-53.14961 -61.37188,35.43307 m -46.02891,44.29134 -46.02891,26.57481 m 92.05782,-53.14961 -15.34297,8.85827 m 76.71485,-44.29134 -46.02891,26.5748 m -15.34297,26.57481 -61.37188,35.43307 m 122.74376,-70.86615 -46.02891,26.57481 m 46.02891,-8.85827 -92.05782,53.14961 m 92.05782,-35.43307 -61.37188,35.43307 m 61.37188,-17.71654 -30.68594,17.71654" />
  </g>
  <g
     inkscape:groupmode="layer"
     id="layer2"
     inkscape:label="Opacite"
     style="display:inline"
     sodipodi:insensitive="true">
    <rect
       style="opacity:1;fill:#ffffff;fill-opacity:0.72477064;stroke:none;stroke-width:0.35433072;stroke-miterlimit:4;stroke-dasharray:none;stroke-opacity:1"
       id="rect4149"
       width="214.80157"
       height="372.04724"
       x="-4.5767345"
       y="-8.8582535" />
  </g>
</svg>
